# xmcd CD database file
#
# Track frame offsets:
#	150
#	6743
#	36000
#	40097
#	47953
#	54525
#	67572
#	80358
#	112401
#	124813
#	131381
#	173180
#	203167
#	224793
#	226571
#
# Disc length: 3111 seconds
#
# Revision: 0
# Processed by: cddbd v1.5.2PL0 Copyright (c) Steve Scherf et al.
# Submitted via: CDex 1.51
#
DISCID=d30c250f
DTITLE=Sylvaine Hélary - Printemps
DYEAR=2015
DGENRE=Jazz
TTITLE0=Appel au Caire
TTITLE1=Pas de crépuscule
TTITLE2=Ronde 4
TTITLE3=Les lieux communs I
TTITLE4=Les lieux communs II
TTITLE5=La production du milieu
TTITLE6=Ronde 1 - Ronde 2
TTITLE7=Le désert blanc sale dure assez
TTITLE8=Grand écart
TTITLE9=Les lieux communs III
TTITLE10=Dans le taxi
TTITLE11=La danse de l'horloge
TTITLE12=La révolte des puritains d'écosse
TTITLE13=Ronde Michelson
TTITLE14=Ouverture
EXTD=YEAR: 2015
EXTT0=
EXTT1=
EXTT2=
EXTT3=
EXTT4=
EXTT5=
EXTT6=
EXTT7=
EXTT8=
EXTT9=
EXTT10=
EXTT11=
EXTT12=
EXTT13=
EXTT14=
PLAYORDER=
